<mxfile host="app.diagrams.net" modified="2023-03-24T23:14:07.729Z" agent="Mozilla/5.0 (Macintosh; Intel Mac OS X 10.15; rv:109.0) Gecko/20100101 Firefox/111.0" etag="HGkO-FYtKtunC-QTCK80" version="21.1.1" type="device">
  <diagram id="C5RBs43oDa-KdzZeNtuy" name="Page-1">
    <mxGraphModel dx="935" dy="1535" grid="1" gridSize="10" guides="1" tooltips="1" connect="1" arrows="1" fold="1" page="0" pageScale="1" pageWidth="827" pageHeight="1169" math="0" shadow="0">
      <root>
        <mxCell id="WIyWlLk6GJQsqaUBKTNV-0" />
        <mxCell id="WIyWlLk6GJQsqaUBKTNV-1" parent="WIyWlLk6GJQsqaUBKTNV-0" />
        <mxCell id="rfoHM-x1Z1Yp6Kfk5jQ--75" value="" style="whiteSpace=wrap;html=1;fillColor=#d5e8d4;strokeColor=#82b366;fillStyle=solid;" vertex="1" parent="WIyWlLk6GJQsqaUBKTNV-1">
          <mxGeometry x="240" y="480" width="213" height="340" as="geometry" />
        </mxCell>
        <mxCell id="rfoHM-x1Z1Yp6Kfk5jQ--73" value="" style="whiteSpace=wrap;html=1;fillColor=#fff2cc;strokeColor=#d6b656;fillStyle=solid;strokeWidth=1;perimeterSpacing=1;" vertex="1" parent="WIyWlLk6GJQsqaUBKTNV-1">
          <mxGeometry x="240" y="80" width="213" height="340" as="geometry" />
        </mxCell>
        <mxCell id="rfoHM-x1Z1Yp6Kfk5jQ--26" style="edgeStyle=orthogonalEdgeStyle;rounded=0;orthogonalLoop=1;jettySize=auto;html=1;entryX=0;entryY=0.5;entryDx=0;entryDy=0;" edge="1" parent="WIyWlLk6GJQsqaUBKTNV-1" source="rfoHM-x1Z1Yp6Kfk5jQ--0" target="rfoHM-x1Z1Yp6Kfk5jQ--5">
          <mxGeometry relative="1" as="geometry">
            <Array as="points">
              <mxPoint x="200" y="107" />
              <mxPoint x="200" y="107" />
            </Array>
          </mxGeometry>
        </mxCell>
        <mxCell id="rfoHM-x1Z1Yp6Kfk5jQ--38" style="edgeStyle=orthogonalEdgeStyle;rounded=0;orthogonalLoop=1;jettySize=auto;html=1;entryX=0.5;entryY=0;entryDx=0;entryDy=0;" edge="1" parent="WIyWlLk6GJQsqaUBKTNV-1" source="rfoHM-x1Z1Yp6Kfk5jQ--64" target="rfoHM-x1Z1Yp6Kfk5jQ--37">
          <mxGeometry relative="1" as="geometry" />
        </mxCell>
        <mxCell id="rfoHM-x1Z1Yp6Kfk5jQ--0" value="&lt;div&gt;ft_send_strlen (pid, len)&lt;br&gt;&lt;/div&gt;" style="rounded=0;whiteSpace=wrap;html=1;fontSize=12;glass=0;strokeWidth=2;shadow=0;fillColor=#fff2cc;strokeColor=#d6b656;gradientColor=none;" vertex="1" parent="WIyWlLk6GJQsqaUBKTNV-1">
          <mxGeometry x="40" y="97" width="140" height="30" as="geometry" />
        </mxCell>
        <mxCell id="rfoHM-x1Z1Yp6Kfk5jQ--4" style="edgeStyle=orthogonalEdgeStyle;rounded=0;orthogonalLoop=1;jettySize=auto;html=1;entryX=0.5;entryY=0;entryDx=0;entryDy=0;" edge="1" parent="WIyWlLk6GJQsqaUBKTNV-1" source="rfoHM-x1Z1Yp6Kfk5jQ--3" target="rfoHM-x1Z1Yp6Kfk5jQ--0">
          <mxGeometry relative="1" as="geometry">
            <Array as="points">
              <mxPoint x="110" y="90" />
              <mxPoint x="110" y="90" />
            </Array>
          </mxGeometry>
        </mxCell>
        <mxCell id="rfoHM-x1Z1Yp6Kfk5jQ--3" value="&lt;div&gt;ft_error_control (*str, pid)&lt;br&gt;&lt;/div&gt;" style="rounded=0;whiteSpace=wrap;html=1;" vertex="1" parent="WIyWlLk6GJQsqaUBKTNV-1">
          <mxGeometry x="40" y="30" width="140" height="30" as="geometry" />
        </mxCell>
        <mxCell id="rfoHM-x1Z1Yp6Kfk5jQ--10" style="edgeStyle=orthogonalEdgeStyle;rounded=0;orthogonalLoop=1;jettySize=auto;html=1;exitX=0.5;exitY=1;exitDx=0;exitDy=0;entryX=0.5;entryY=0;entryDx=0;entryDy=0;" edge="1" parent="WIyWlLk6GJQsqaUBKTNV-1" source="rfoHM-x1Z1Yp6Kfk5jQ--5" target="rfoHM-x1Z1Yp6Kfk5jQ--7">
          <mxGeometry relative="1" as="geometry" />
        </mxCell>
        <mxCell id="rfoHM-x1Z1Yp6Kfk5jQ--5" value="i" style="rounded=0;whiteSpace=wrap;html=1;" vertex="1" parent="WIyWlLk6GJQsqaUBKTNV-1">
          <mxGeometry x="280" y="97" width="40" height="20" as="geometry" />
        </mxCell>
        <mxCell id="rfoHM-x1Z1Yp6Kfk5jQ--15" style="edgeStyle=orthogonalEdgeStyle;rounded=0;orthogonalLoop=1;jettySize=auto;html=1;entryX=0.5;entryY=0;entryDx=0;entryDy=0;" edge="1" parent="WIyWlLk6GJQsqaUBKTNV-1" source="rfoHM-x1Z1Yp6Kfk5jQ--7" target="rfoHM-x1Z1Yp6Kfk5jQ--14">
          <mxGeometry relative="1" as="geometry" />
        </mxCell>
        <mxCell id="rfoHM-x1Z1Yp6Kfk5jQ--31" value="&lt;div&gt;T&lt;/div&gt;" style="edgeLabel;html=1;align=center;verticalAlign=middle;resizable=0;points=[];" vertex="1" connectable="0" parent="rfoHM-x1Z1Yp6Kfk5jQ--15">
          <mxGeometry x="0.6" relative="1" as="geometry">
            <mxPoint x="10" as="offset" />
          </mxGeometry>
        </mxCell>
        <mxCell id="rfoHM-x1Z1Yp6Kfk5jQ--27" style="edgeStyle=orthogonalEdgeStyle;rounded=0;orthogonalLoop=1;jettySize=auto;html=1;exitX=0;exitY=0.5;exitDx=0;exitDy=0;" edge="1" parent="WIyWlLk6GJQsqaUBKTNV-1" source="rfoHM-x1Z1Yp6Kfk5jQ--7">
          <mxGeometry relative="1" as="geometry">
            <mxPoint x="110" y="172" as="targetPoint" />
            <Array as="points">
              <mxPoint x="200" y="172" />
              <mxPoint x="200" y="172" />
            </Array>
          </mxGeometry>
        </mxCell>
        <mxCell id="rfoHM-x1Z1Yp6Kfk5jQ--7" value="&lt;font color=&quot;#ff0000&quot;&gt;i &amp;lt; 32&lt;/font&gt;" style="rhombus;whiteSpace=wrap;html=1;strokeColor=#FF0000;strokeWidth=2;" vertex="1" parent="WIyWlLk6GJQsqaUBKTNV-1">
          <mxGeometry x="275" y="147" width="50" height="50" as="geometry" />
        </mxCell>
        <mxCell id="rfoHM-x1Z1Yp6Kfk5jQ--8" style="edgeStyle=orthogonalEdgeStyle;rounded=0;orthogonalLoop=1;jettySize=auto;html=1;exitX=0.5;exitY=1;exitDx=0;exitDy=0;" edge="1" parent="WIyWlLk6GJQsqaUBKTNV-1" source="rfoHM-x1Z1Yp6Kfk5jQ--7" target="rfoHM-x1Z1Yp6Kfk5jQ--7">
          <mxGeometry relative="1" as="geometry" />
        </mxCell>
        <mxCell id="rfoHM-x1Z1Yp6Kfk5jQ--17" style="edgeStyle=orthogonalEdgeStyle;rounded=0;orthogonalLoop=1;jettySize=auto;html=1;entryX=0.5;entryY=0;entryDx=0;entryDy=0;" edge="1" parent="WIyWlLk6GJQsqaUBKTNV-1" source="rfoHM-x1Z1Yp6Kfk5jQ--14" target="rfoHM-x1Z1Yp6Kfk5jQ--16">
          <mxGeometry relative="1" as="geometry" />
        </mxCell>
        <mxCell id="rfoHM-x1Z1Yp6Kfk5jQ--19" style="edgeStyle=orthogonalEdgeStyle;rounded=0;orthogonalLoop=1;jettySize=auto;html=1;entryX=0.5;entryY=0;entryDx=0;entryDy=0;" edge="1" parent="WIyWlLk6GJQsqaUBKTNV-1" source="rfoHM-x1Z1Yp6Kfk5jQ--14" target="rfoHM-x1Z1Yp6Kfk5jQ--18">
          <mxGeometry relative="1" as="geometry">
            <mxPoint x="420" y="242" as="targetPoint" />
            <Array as="points">
              <mxPoint x="390" y="242" />
            </Array>
          </mxGeometry>
        </mxCell>
        <mxCell id="rfoHM-x1Z1Yp6Kfk5jQ--33" value="F" style="edgeLabel;html=1;align=center;verticalAlign=middle;resizable=0;points=[];" vertex="1" connectable="0" parent="rfoHM-x1Z1Yp6Kfk5jQ--19">
          <mxGeometry x="-0.4909" y="-1" relative="1" as="geometry">
            <mxPoint x="-16" y="-11" as="offset" />
          </mxGeometry>
        </mxCell>
        <mxCell id="rfoHM-x1Z1Yp6Kfk5jQ--14" value="len &amp;amp; 1" style="rhombus;whiteSpace=wrap;html=1;" vertex="1" parent="WIyWlLk6GJQsqaUBKTNV-1">
          <mxGeometry x="275" y="217" width="50" height="50" as="geometry" />
        </mxCell>
        <mxCell id="rfoHM-x1Z1Yp6Kfk5jQ--22" style="edgeStyle=orthogonalEdgeStyle;rounded=0;orthogonalLoop=1;jettySize=auto;html=1;entryX=0.5;entryY=0;entryDx=0;entryDy=0;" edge="1" parent="WIyWlLk6GJQsqaUBKTNV-1" source="rfoHM-x1Z1Yp6Kfk5jQ--16" target="rfoHM-x1Z1Yp6Kfk5jQ--20">
          <mxGeometry relative="1" as="geometry" />
        </mxCell>
        <mxCell id="rfoHM-x1Z1Yp6Kfk5jQ--16" value="&lt;div&gt;kill SIGUSR2&lt;/div&gt;" style="rounded=0;whiteSpace=wrap;html=1;" vertex="1" parent="WIyWlLk6GJQsqaUBKTNV-1">
          <mxGeometry x="260" y="287" width="80" height="20" as="geometry" />
        </mxCell>
        <mxCell id="rfoHM-x1Z1Yp6Kfk5jQ--35" style="edgeStyle=orthogonalEdgeStyle;rounded=0;orthogonalLoop=1;jettySize=auto;html=1;exitX=0.5;exitY=1;exitDx=0;exitDy=0;" edge="1" parent="WIyWlLk6GJQsqaUBKTNV-1" source="rfoHM-x1Z1Yp6Kfk5jQ--18">
          <mxGeometry relative="1" as="geometry">
            <mxPoint x="300" y="320" as="targetPoint" />
            <Array as="points">
              <mxPoint x="390" y="320" />
              <mxPoint x="340" y="320" />
            </Array>
          </mxGeometry>
        </mxCell>
        <mxCell id="rfoHM-x1Z1Yp6Kfk5jQ--18" value="&lt;div&gt;kill SIGUSR1&lt;/div&gt;" style="rounded=0;whiteSpace=wrap;html=1;" vertex="1" parent="WIyWlLk6GJQsqaUBKTNV-1">
          <mxGeometry x="350" y="287" width="80" height="20" as="geometry" />
        </mxCell>
        <mxCell id="rfoHM-x1Z1Yp6Kfk5jQ--24" style="edgeStyle=orthogonalEdgeStyle;rounded=0;orthogonalLoop=1;jettySize=auto;html=1;entryX=0.5;entryY=0;entryDx=0;entryDy=0;" edge="1" parent="WIyWlLk6GJQsqaUBKTNV-1" source="rfoHM-x1Z1Yp6Kfk5jQ--20" target="rfoHM-x1Z1Yp6Kfk5jQ--23">
          <mxGeometry relative="1" as="geometry" />
        </mxCell>
        <mxCell id="rfoHM-x1Z1Yp6Kfk5jQ--20" value="len = len &amp;gt;&amp;gt; 1" style="rounded=0;whiteSpace=wrap;html=1;" vertex="1" parent="WIyWlLk6GJQsqaUBKTNV-1">
          <mxGeometry x="260" y="337" width="80" height="20" as="geometry" />
        </mxCell>
        <mxCell id="rfoHM-x1Z1Yp6Kfk5jQ--28" style="edgeStyle=orthogonalEdgeStyle;rounded=0;orthogonalLoop=1;jettySize=auto;html=1;exitX=1;exitY=0.5;exitDx=0;exitDy=0;" edge="1" parent="WIyWlLk6GJQsqaUBKTNV-1" source="rfoHM-x1Z1Yp6Kfk5jQ--23">
          <mxGeometry relative="1" as="geometry">
            <mxPoint x="300" y="130" as="targetPoint" />
            <Array as="points">
              <mxPoint x="440" y="387" />
              <mxPoint x="440" y="130" />
            </Array>
          </mxGeometry>
        </mxCell>
        <mxCell id="rfoHM-x1Z1Yp6Kfk5jQ--30" value="F" style="edgeLabel;html=1;align=center;verticalAlign=middle;resizable=0;points=[];" vertex="1" connectable="0" parent="rfoHM-x1Z1Yp6Kfk5jQ--28">
          <mxGeometry x="0.6811" y="1" relative="1" as="geometry">
            <mxPoint x="-123" y="31" as="offset" />
          </mxGeometry>
        </mxCell>
        <mxCell id="rfoHM-x1Z1Yp6Kfk5jQ--23" value="i++" style="rounded=0;whiteSpace=wrap;html=1;" vertex="1" parent="WIyWlLk6GJQsqaUBKTNV-1">
          <mxGeometry x="280" y="377" width="40" height="20" as="geometry" />
        </mxCell>
        <mxCell id="rfoHM-x1Z1Yp6Kfk5jQ--32" value="&lt;div&gt;T&lt;/div&gt;" style="edgeLabel;html=1;align=center;verticalAlign=middle;resizable=0;points=[];" vertex="1" connectable="0" parent="WIyWlLk6GJQsqaUBKTNV-1">
          <mxGeometry x="307" y="211" as="geometry">
            <mxPoint x="3" y="62" as="offset" />
          </mxGeometry>
        </mxCell>
        <mxCell id="rfoHM-x1Z1Yp6Kfk5jQ--62" style="edgeStyle=orthogonalEdgeStyle;rounded=0;orthogonalLoop=1;jettySize=auto;html=1;exitX=1;exitY=0.25;exitDx=0;exitDy=0;entryX=0;entryY=0.5;entryDx=0;entryDy=0;" edge="1" parent="WIyWlLk6GJQsqaUBKTNV-1" source="rfoHM-x1Z1Yp6Kfk5jQ--37" target="rfoHM-x1Z1Yp6Kfk5jQ--40">
          <mxGeometry relative="1" as="geometry">
            <mxPoint x="270" y="516" as="targetPoint" />
            <Array as="points">
              <mxPoint x="180" y="511" />
            </Array>
          </mxGeometry>
        </mxCell>
        <mxCell id="rfoHM-x1Z1Yp6Kfk5jQ--68" style="edgeStyle=orthogonalEdgeStyle;rounded=0;orthogonalLoop=1;jettySize=auto;html=1;entryX=0.5;entryY=0;entryDx=0;entryDy=0;" edge="1" parent="WIyWlLk6GJQsqaUBKTNV-1" source="rfoHM-x1Z1Yp6Kfk5jQ--37" target="rfoHM-x1Z1Yp6Kfk5jQ--67">
          <mxGeometry relative="1" as="geometry" />
        </mxCell>
        <mxCell id="rfoHM-x1Z1Yp6Kfk5jQ--37" value="&lt;div&gt;ft_send_signal (pid, octet)&lt;br&gt;&lt;/div&gt;" style="rounded=0;whiteSpace=wrap;html=1;fontSize=12;glass=0;strokeWidth=2;shadow=0;fillColor=#d5e8d4;gradientColor=none;strokeColor=#82b366;" vertex="1" parent="WIyWlLk6GJQsqaUBKTNV-1">
          <mxGeometry x="40" y="501" width="140" height="30" as="geometry" />
        </mxCell>
        <mxCell id="rfoHM-x1Z1Yp6Kfk5jQ--39" style="edgeStyle=orthogonalEdgeStyle;rounded=0;orthogonalLoop=1;jettySize=auto;html=1;exitX=0.5;exitY=1;exitDx=0;exitDy=0;entryX=0.5;entryY=0;entryDx=0;entryDy=0;" edge="1" parent="WIyWlLk6GJQsqaUBKTNV-1" source="rfoHM-x1Z1Yp6Kfk5jQ--40" target="rfoHM-x1Z1Yp6Kfk5jQ--43">
          <mxGeometry relative="1" as="geometry" />
        </mxCell>
        <mxCell id="rfoHM-x1Z1Yp6Kfk5jQ--40" value="i" style="rounded=0;whiteSpace=wrap;html=1;" vertex="1" parent="WIyWlLk6GJQsqaUBKTNV-1">
          <mxGeometry x="279" y="501" width="40" height="20" as="geometry" />
        </mxCell>
        <mxCell id="rfoHM-x1Z1Yp6Kfk5jQ--41" style="edgeStyle=orthogonalEdgeStyle;rounded=0;orthogonalLoop=1;jettySize=auto;html=1;entryX=0.5;entryY=0;entryDx=0;entryDy=0;" edge="1" parent="WIyWlLk6GJQsqaUBKTNV-1" source="rfoHM-x1Z1Yp6Kfk5jQ--43" target="rfoHM-x1Z1Yp6Kfk5jQ--48">
          <mxGeometry relative="1" as="geometry" />
        </mxCell>
        <mxCell id="rfoHM-x1Z1Yp6Kfk5jQ--42" value="&lt;div&gt;T&lt;/div&gt;" style="edgeLabel;html=1;align=center;verticalAlign=middle;resizable=0;points=[];" vertex="1" connectable="0" parent="rfoHM-x1Z1Yp6Kfk5jQ--41">
          <mxGeometry x="0.6" relative="1" as="geometry">
            <mxPoint x="10" as="offset" />
          </mxGeometry>
        </mxCell>
        <mxCell id="rfoHM-x1Z1Yp6Kfk5jQ--89" style="edgeStyle=orthogonalEdgeStyle;rounded=0;orthogonalLoop=1;jettySize=auto;html=1;" edge="1" parent="WIyWlLk6GJQsqaUBKTNV-1" source="rfoHM-x1Z1Yp6Kfk5jQ--43">
          <mxGeometry relative="1" as="geometry">
            <mxPoint x="110" y="576" as="targetPoint" />
          </mxGeometry>
        </mxCell>
        <mxCell id="rfoHM-x1Z1Yp6Kfk5jQ--43" value="&lt;font color=&quot;#ff0000&quot;&gt;i &amp;lt; 8&lt;br&gt;&lt;/font&gt;" style="rhombus;whiteSpace=wrap;html=1;strokeWidth=2;strokeColor=#FF0000;" vertex="1" parent="WIyWlLk6GJQsqaUBKTNV-1">
          <mxGeometry x="274" y="551" width="50" height="50" as="geometry" />
        </mxCell>
        <mxCell id="rfoHM-x1Z1Yp6Kfk5jQ--44" style="edgeStyle=orthogonalEdgeStyle;rounded=0;orthogonalLoop=1;jettySize=auto;html=1;exitX=0.5;exitY=1;exitDx=0;exitDy=0;" edge="1" parent="WIyWlLk6GJQsqaUBKTNV-1" source="rfoHM-x1Z1Yp6Kfk5jQ--43" target="rfoHM-x1Z1Yp6Kfk5jQ--43">
          <mxGeometry relative="1" as="geometry" />
        </mxCell>
        <mxCell id="rfoHM-x1Z1Yp6Kfk5jQ--45" style="edgeStyle=orthogonalEdgeStyle;rounded=0;orthogonalLoop=1;jettySize=auto;html=1;entryX=0.5;entryY=0;entryDx=0;entryDy=0;" edge="1" parent="WIyWlLk6GJQsqaUBKTNV-1" source="rfoHM-x1Z1Yp6Kfk5jQ--48" target="rfoHM-x1Z1Yp6Kfk5jQ--50">
          <mxGeometry relative="1" as="geometry" />
        </mxCell>
        <mxCell id="rfoHM-x1Z1Yp6Kfk5jQ--46" style="edgeStyle=orthogonalEdgeStyle;rounded=0;orthogonalLoop=1;jettySize=auto;html=1;entryX=0.5;entryY=0;entryDx=0;entryDy=0;" edge="1" parent="WIyWlLk6GJQsqaUBKTNV-1" source="rfoHM-x1Z1Yp6Kfk5jQ--48" target="rfoHM-x1Z1Yp6Kfk5jQ--52">
          <mxGeometry relative="1" as="geometry">
            <mxPoint x="419" y="646" as="targetPoint" />
            <Array as="points">
              <mxPoint x="389" y="646" />
            </Array>
          </mxGeometry>
        </mxCell>
        <mxCell id="rfoHM-x1Z1Yp6Kfk5jQ--47" value="F" style="edgeLabel;html=1;align=center;verticalAlign=middle;resizable=0;points=[];" vertex="1" connectable="0" parent="rfoHM-x1Z1Yp6Kfk5jQ--46">
          <mxGeometry x="-0.4909" y="-1" relative="1" as="geometry">
            <mxPoint x="-16" y="-11" as="offset" />
          </mxGeometry>
        </mxCell>
        <mxCell id="rfoHM-x1Z1Yp6Kfk5jQ--48" value="octet &amp;amp; 1" style="rhombus;whiteSpace=wrap;html=1;" vertex="1" parent="WIyWlLk6GJQsqaUBKTNV-1">
          <mxGeometry x="270" y="621" width="58" height="50" as="geometry" />
        </mxCell>
        <mxCell id="rfoHM-x1Z1Yp6Kfk5jQ--49" style="edgeStyle=orthogonalEdgeStyle;rounded=0;orthogonalLoop=1;jettySize=auto;html=1;entryX=0.5;entryY=0;entryDx=0;entryDy=0;" edge="1" parent="WIyWlLk6GJQsqaUBKTNV-1" source="rfoHM-x1Z1Yp6Kfk5jQ--50" target="rfoHM-x1Z1Yp6Kfk5jQ--54">
          <mxGeometry relative="1" as="geometry" />
        </mxCell>
        <mxCell id="rfoHM-x1Z1Yp6Kfk5jQ--50" value="&lt;div&gt;kill SIGUSR2&lt;/div&gt;" style="rounded=0;whiteSpace=wrap;html=1;" vertex="1" parent="WIyWlLk6GJQsqaUBKTNV-1">
          <mxGeometry x="259" y="691" width="80" height="20" as="geometry" />
        </mxCell>
        <mxCell id="rfoHM-x1Z1Yp6Kfk5jQ--51" style="edgeStyle=orthogonalEdgeStyle;rounded=0;orthogonalLoop=1;jettySize=auto;html=1;exitX=0.5;exitY=1;exitDx=0;exitDy=0;" edge="1" parent="WIyWlLk6GJQsqaUBKTNV-1" source="rfoHM-x1Z1Yp6Kfk5jQ--52">
          <mxGeometry relative="1" as="geometry">
            <mxPoint x="299" y="724" as="targetPoint" />
            <Array as="points">
              <mxPoint x="389" y="724" />
              <mxPoint x="339" y="724" />
            </Array>
          </mxGeometry>
        </mxCell>
        <mxCell id="rfoHM-x1Z1Yp6Kfk5jQ--52" value="&lt;div&gt;kill SIGUSR1&lt;/div&gt;" style="rounded=0;whiteSpace=wrap;html=1;" vertex="1" parent="WIyWlLk6GJQsqaUBKTNV-1">
          <mxGeometry x="349" y="691" width="80" height="20" as="geometry" />
        </mxCell>
        <mxCell id="rfoHM-x1Z1Yp6Kfk5jQ--60" style="edgeStyle=orthogonalEdgeStyle;rounded=0;orthogonalLoop=1;jettySize=auto;html=1;entryX=0.5;entryY=0;entryDx=0;entryDy=0;" edge="1" parent="WIyWlLk6GJQsqaUBKTNV-1" source="rfoHM-x1Z1Yp6Kfk5jQ--54" target="rfoHM-x1Z1Yp6Kfk5jQ--57">
          <mxGeometry relative="1" as="geometry" />
        </mxCell>
        <mxCell id="rfoHM-x1Z1Yp6Kfk5jQ--54" value="octet = octet &amp;gt;&amp;gt; 1" style="rounded=0;whiteSpace=wrap;html=1;" vertex="1" parent="WIyWlLk6GJQsqaUBKTNV-1">
          <mxGeometry x="250" y="741" width="100" height="20" as="geometry" />
        </mxCell>
        <mxCell id="rfoHM-x1Z1Yp6Kfk5jQ--55" style="edgeStyle=orthogonalEdgeStyle;rounded=0;orthogonalLoop=1;jettySize=auto;html=1;exitX=1;exitY=0.5;exitDx=0;exitDy=0;" edge="1" parent="WIyWlLk6GJQsqaUBKTNV-1" source="rfoHM-x1Z1Yp6Kfk5jQ--57">
          <mxGeometry relative="1" as="geometry">
            <mxPoint x="299" y="534" as="targetPoint" />
            <Array as="points">
              <mxPoint x="440" y="791" />
              <mxPoint x="440" y="534" />
            </Array>
          </mxGeometry>
        </mxCell>
        <mxCell id="rfoHM-x1Z1Yp6Kfk5jQ--56" value="F" style="edgeLabel;html=1;align=center;verticalAlign=middle;resizable=0;points=[];" vertex="1" connectable="0" parent="rfoHM-x1Z1Yp6Kfk5jQ--55">
          <mxGeometry x="0.6811" y="1" relative="1" as="geometry">
            <mxPoint x="-123" y="31" as="offset" />
          </mxGeometry>
        </mxCell>
        <mxCell id="rfoHM-x1Z1Yp6Kfk5jQ--57" value="i++" style="rounded=0;whiteSpace=wrap;html=1;" vertex="1" parent="WIyWlLk6GJQsqaUBKTNV-1">
          <mxGeometry x="280" y="781" width="40" height="20" as="geometry" />
        </mxCell>
        <mxCell id="rfoHM-x1Z1Yp6Kfk5jQ--58" value="&lt;div&gt;T&lt;/div&gt;" style="edgeLabel;html=1;align=center;verticalAlign=middle;resizable=0;points=[];" vertex="1" connectable="0" parent="WIyWlLk6GJQsqaUBKTNV-1">
          <mxGeometry x="306" y="615" as="geometry">
            <mxPoint x="3" y="62" as="offset" />
          </mxGeometry>
        </mxCell>
        <mxCell id="rfoHM-x1Z1Yp6Kfk5jQ--65" value="" style="edgeStyle=orthogonalEdgeStyle;rounded=0;orthogonalLoop=1;jettySize=auto;html=1;entryX=0.5;entryY=0;entryDx=0;entryDy=0;" edge="1" parent="WIyWlLk6GJQsqaUBKTNV-1" source="rfoHM-x1Z1Yp6Kfk5jQ--0" target="rfoHM-x1Z1Yp6Kfk5jQ--64">
          <mxGeometry relative="1" as="geometry">
            <mxPoint x="110" y="127" as="sourcePoint" />
            <mxPoint x="110" y="520" as="targetPoint" />
          </mxGeometry>
        </mxCell>
        <mxCell id="rfoHM-x1Z1Yp6Kfk5jQ--78" style="edgeStyle=orthogonalEdgeStyle;rounded=0;orthogonalLoop=1;jettySize=auto;html=1;entryX=0.5;entryY=0;entryDx=0;entryDy=0;" edge="1" parent="WIyWlLk6GJQsqaUBKTNV-1" source="rfoHM-x1Z1Yp6Kfk5jQ--64" target="rfoHM-x1Z1Yp6Kfk5jQ--76">
          <mxGeometry relative="1" as="geometry">
            <mxPoint x="580" y="690" as="targetPoint" />
            <Array as="points">
              <mxPoint x="510" y="450" />
            </Array>
          </mxGeometry>
        </mxCell>
        <mxCell id="rfoHM-x1Z1Yp6Kfk5jQ--64" value="*str" style="rhombus;whiteSpace=wrap;html=1;" vertex="1" parent="WIyWlLk6GJQsqaUBKTNV-1">
          <mxGeometry x="85" y="427" width="50" height="50" as="geometry" />
        </mxCell>
        <mxCell id="rfoHM-x1Z1Yp6Kfk5jQ--69" style="edgeStyle=orthogonalEdgeStyle;rounded=0;orthogonalLoop=1;jettySize=auto;html=1;exitX=0.5;exitY=1;exitDx=0;exitDy=0;entryX=0;entryY=0.5;entryDx=0;entryDy=0;" edge="1" parent="WIyWlLk6GJQsqaUBKTNV-1" source="rfoHM-x1Z1Yp6Kfk5jQ--67" target="rfoHM-x1Z1Yp6Kfk5jQ--64">
          <mxGeometry relative="1" as="geometry">
            <mxPoint x="80" y="340" as="targetPoint" />
            <Array as="points">
              <mxPoint x="110" y="660" />
              <mxPoint x="10" y="660" />
              <mxPoint x="10" y="452" />
            </Array>
          </mxGeometry>
        </mxCell>
        <mxCell id="rfoHM-x1Z1Yp6Kfk5jQ--67" value="i++" style="rounded=0;whiteSpace=wrap;html=1;" vertex="1" parent="WIyWlLk6GJQsqaUBKTNV-1">
          <mxGeometry x="90" y="621" width="40" height="20" as="geometry" />
        </mxCell>
        <mxCell id="rfoHM-x1Z1Yp6Kfk5jQ--76" value="return (0)" style="rounded=0;whiteSpace=wrap;html=1;" vertex="1" parent="WIyWlLk6GJQsqaUBKTNV-1">
          <mxGeometry x="480" y="840" width="60" height="20" as="geometry" />
        </mxCell>
        <mxCell id="rfoHM-x1Z1Yp6Kfk5jQ--79" value="CLIENT (exe, pid, str)" style="rounded=0;whiteSpace=wrap;html=1;" vertex="1" parent="WIyWlLk6GJQsqaUBKTNV-1">
          <mxGeometry x="40" y="-30" width="140" height="30" as="geometry" />
        </mxCell>
        <mxCell id="rfoHM-x1Z1Yp6Kfk5jQ--80" value="&lt;div&gt;SERVER&lt;/div&gt;" style="rounded=0;whiteSpace=wrap;html=1;" vertex="1" parent="WIyWlLk6GJQsqaUBKTNV-1">
          <mxGeometry x="680" y="-30" width="140" height="30" as="geometry" />
        </mxCell>
        <mxCell id="rfoHM-x1Z1Yp6Kfk5jQ--86" style="edgeStyle=orthogonalEdgeStyle;rounded=0;orthogonalLoop=1;jettySize=auto;html=1;entryX=0.5;entryY=0;entryDx=0;entryDy=0;" edge="1" parent="WIyWlLk6GJQsqaUBKTNV-1" source="rfoHM-x1Z1Yp6Kfk5jQ--81" target="rfoHM-x1Z1Yp6Kfk5jQ--83">
          <mxGeometry relative="1" as="geometry" />
        </mxCell>
        <mxCell id="rfoHM-x1Z1Yp6Kfk5jQ--81" value="&lt;div&gt;ft_rebuild_buffer(signal)&lt;/div&gt;" style="rounded=0;whiteSpace=wrap;html=1;" vertex="1" parent="WIyWlLk6GJQsqaUBKTNV-1">
          <mxGeometry x="680" y="30" width="140" height="30" as="geometry" />
        </mxCell>
        <mxCell id="rfoHM-x1Z1Yp6Kfk5jQ--82" value="&lt;div&gt;signal =&lt;/div&gt;&lt;div&gt;SIGUSR2&lt;/div&gt;" style="strokeWidth=1;html=1;shape=mxgraph.flowchart.decision;whiteSpace=wrap;aspect=fixed;" vertex="1" parent="WIyWlLk6GJQsqaUBKTNV-1">
          <mxGeometry x="530" y="-90" width="80" height="80" as="geometry" />
        </mxCell>
        <mxCell id="rfoHM-x1Z1Yp6Kfk5jQ--87" value="T" style="edgeStyle=orthogonalEdgeStyle;rounded=0;orthogonalLoop=1;jettySize=auto;html=1;" edge="1" parent="WIyWlLk6GJQsqaUBKTNV-1" source="rfoHM-x1Z1Yp6Kfk5jQ--83">
          <mxGeometry x="0.1837" y="10" relative="1" as="geometry">
            <mxPoint x="930" y="161" as="targetPoint" />
            <mxPoint as="offset" />
          </mxGeometry>
        </mxCell>
        <mxCell id="rfoHM-x1Z1Yp6Kfk5jQ--88" value="F" style="edgeStyle=orthogonalEdgeStyle;rounded=0;orthogonalLoop=1;jettySize=auto;html=1;exitX=1;exitY=0.5;exitDx=0;exitDy=0;" edge="1" parent="WIyWlLk6GJQsqaUBKTNV-1" source="rfoHM-x1Z1Yp6Kfk5jQ--83">
          <mxGeometry x="-0.8848" y="10" relative="1" as="geometry">
            <mxPoint x="1171" y="161" as="targetPoint" />
            <mxPoint x="1040" y="101.00000000000023" as="sourcePoint" />
            <Array as="points">
              <mxPoint x="1171" y="101" />
            </Array>
            <mxPoint as="offset" />
          </mxGeometry>
        </mxCell>
        <mxCell id="rfoHM-x1Z1Yp6Kfk5jQ--83" value="flag = 0" style="rhombus;whiteSpace=wrap;html=1;aspect=fixed;" vertex="1" parent="WIyWlLk6GJQsqaUBKTNV-1">
          <mxGeometry x="900" y="70" width="60" height="60" as="geometry" />
        </mxCell>
        <mxCell id="rfoHM-x1Z1Yp6Kfk5jQ--84" value="ft_rebuild_bufsize(signal)" style="rounded=0;whiteSpace=wrap;html=1;" vertex="1" parent="WIyWlLk6GJQsqaUBKTNV-1">
          <mxGeometry x="860" y="162" width="140" height="30" as="geometry" />
        </mxCell>
        <mxCell id="rfoHM-x1Z1Yp6Kfk5jQ--85" value="&lt;div&gt;ft_rebuild_char(signal)&lt;/div&gt;" style="rounded=0;whiteSpace=wrap;html=1;" vertex="1" parent="WIyWlLk6GJQsqaUBKTNV-1">
          <mxGeometry x="1101" y="162" width="140" height="30" as="geometry" />
        </mxCell>
      </root>
    </mxGraphModel>
  </diagram>
</mxfile>
